<?xml version="1.0" standalone="no"?><!DOCTYPE svg PUBLIC "-//W3C//DTD SVG 1.1//EN" "http://www.w3.org/Graphics/SVG/1.1/DTD/svg11.dtd"><svg t="1504852586436" class="icon" style="" viewBox="0 0 1024 1024" version="1.1" xmlns="http://www.w3.org/2000/svg" p-id="11528" xmlns:xlink="http://www.w3.org/1999/xlink" width="128" height="128"><defs><style type="text/css"></style></defs><path d="M630.6 754.7L512 864.9 393.4 754.7C287.3 708.8 213 603.3 213 480.3c0-165.2 133.9-299.1 299.1-299.1s299.1 133.9 299.1 299.1c-0.1 123-74.5 228.5-180.6 274.4z" fill="#55AFDC" p-id="11529"></path><path d="M618.8 544.4v42.7h-42.7v85.4h-85.4v-85.4h42.7v-42.7h42.7V416.3h-85.4v85.4h-85.4v-85.4H448v-42.7H661.6v170.9h-42.8zM576.1 758h-85.4v-42.7h85.4V758z" fill="#419CD2" p-id="11530"></path><path d="M405.2 288.1h170.9v42.7H405.2v-42.7z m128.2 42.7h85.4V459h-85.4V330.8zM490.6 459H576v42.7h-85.4V459z m-42.7 42.7h85.4v85.4h-85.4v-85.4z m-85.4-170.9h85.4v85.4h-85.4v-85.4z m85.4 299.1h85.4v42.7h-85.4v-42.7z" fill="#FFFFFF" p-id="11531"></path></svg>