<?xml version="1.0" standalone="no"?><!DOCTYPE svg PUBLIC "-//W3C//DTD SVG 1.1//EN" "http://www.w3.org/Graphics/SVG/1.1/DTD/svg11.dtd"><svg t="1504852837657" class="icon" style="" viewBox="0 0 1024 1024" version="1.1" xmlns="http://www.w3.org/2000/svg" p-id="784" xmlns:xlink="http://www.w3.org/1999/xlink" width="128" height="128"><defs><style type="text/css"></style></defs><path d="M275.5 811.1l15.8 15.8c10.3 10.3 27 10.3 37.3 0 3.6-3.6 5.9-7.9 7-12.5 7.2-40.9 31-58.4 31-58.4S734 446.8 808.7 378.4c74.7-68.4 18.9-119.9 18.9-119.9s-51.6-55.8-119.9 18.9c-68.4 74.7-377.6 442.1-377.6 442.1s-17.5 23.8-58.4 31c-4.6 1.1-8.9 3.4-12.5 7-10.3 10.3-10.3 27 0 37.3l15.8 15.8" fill="#F2E2C8" p-id="785"></path><path d="M362.5 759.8l-36.1-36.1L447.1 581l58 57.9z" fill="#F07067" p-id="786"></path><path d="M753.7 519.1c-58.2 0-105.6 47.4-105.6 105.6 0 58.2 47.4 105.6 105.6 105.6S859.3 683 859.3 624.7c0-58.2-47.4-105.6-105.6-105.6zM688 661.8c-6.2-10.9-9.8-23.6-9.8-37 0-13.5 3.6-26.1 9.8-37 12.9 7.6 21.2 21.5 21.2 37 0.1 15.4-8.2 29.4-21.2 37z m65.7 38.4c-17.1 0-32.8-5.8-45.5-15.4 19.3-13.4 31.3-35.6 31.3-60s-12-46.6-31.3-60c12.7-9.6 28.4-15.4 45.5-15.4 17.5 0 33.7 6.1 46.5 16.1-18.7 13.5-30.2 35.3-30.2 59.3 0 23.9 11.6 45.8 30.2 59.3-12.9 10-29 16.1-46.5 16.1z m66.2-39.3c-12.1-7.8-19.8-21.2-19.8-36.1 0-14.9 7.7-28.3 19.8-36.1 5.9 10.7 9.2 23 9.2 36.1 0 13-3.3 25.3-9.2 36.1zM862.8 306.7c0.1-33.7-21-55.6-24.4-58.9-3.3-3.4-25.1-24.4-58.7-24.4h-0.2c-28.4 0.1-56.3 14.8-82.9 43.8-40.4 44.2-165.3 191.1-260.9 304h-0.1L315.1 713.7c-5.8 5.8-20.4 17.4-45.9 21.9-0.3 0.1-0.6 0.1-0.9 0.2-7.4 1.8-14.2 5.6-19.6 11-7.8 7.8-12.1 18.3-12.1 29.3 0 11.1 4.3 21.5 12.1 29.3l15.8 15.8 0.1 0.1 0.3 0.3 15.8 15.8c8.1 8.1 18.7 12.1 29.3 12.1 10.6 0 21.3-4 29.3-12.1 5.4-5.4 9.2-12.2 11-19.7 0.1-0.3 0.1-0.6 0.2-0.9 4.4-25 15.7-39.5 21.5-45.5 0.1-0.1 0.2-0.1 0.2-0.2l81.3-68.9c112.4-95 312.5-264.5 365.4-312.8 29.1-26.4 43.8-54.3 43.9-82.7zM320.9 811.2c-0.5 1.9-1.5 3.6-2.9 5-4.4 4.4-11.6 4.4-16 0l-15.8-15.8-0.1-0.1-0.3-0.3-15.8-15.8c-2.1-2.1-3.3-5-3.3-8s1.2-5.9 3.3-8c1.4-1.4 3.1-2.4 5-2.9 23-4.1 39.5-13.1 50.6-21.1l16.5 16.5c-8.2 10.9-17.1 27.5-21.2 50.5z m116.5-134.7c-35.5 30-62.6 52.8-74.2 62.6L347 723c11.5-13.7 41-48.7 78.9-93.5l22.2-26.2 34.8 34.8-45.5 38.4z m361.2-309.2c-42.5 38.9-181.4 157-292.6 251.2l-38.3-38.3C561.9 468.9 680 330.1 718.9 287.6c20.5-22.4 40.8-33.8 60.3-34 22.8-0.2 37.4 15.1 37.5 15.1l0.8 0.8c0.2 0.1 15.5 15 15.2 37.5-0.3 19.5-11.8 39.8-34.1 60.3z" fill="#211F1E" p-id="787"></path></svg>